<?xml version="1.0" encoding="UTF-8" standalone="no"?>
<!-- Created with Inkscape (http://www.inkscape.org/) -->

<svg
   xmlns:dc="http://purl.org/dc/elements/1.1/"
   xmlns:cc="http://creativecommons.org/ns#"
   xmlns:rdf="http://www.w3.org/1999/02/22-rdf-syntax-ns#"
   xmlns:svg="http://www.w3.org/2000/svg"
   xmlns="http://www.w3.org/2000/svg"
   xmlns:sodipodi="http://sodipodi.sourceforge.net/DTD/sodipodi-0.dtd"
   xmlns:inkscape="http://www.inkscape.org/namespaces/inkscape"
   version="1.0"
   width="361.81308"
   height="464.97198"
   id="svg2"
   sodipodi:version="0.32"
   inkscape:version="0.47 r22583"
   sodipodi:docname="GSM_Micro_SIM_Card_vs._GSM_Mini_Sim_Card.svg"
   inkscape:output_extension="org.inkscape.output.svg.inkscape">
  <metadata
     id="metadata71">
    <rdf:RDF>
      <cc:Work
         rdf:about="">
        <dc:format>image/svg+xml</dc:format>
        <dc:type
           rdf:resource="http://purl.org/dc/dcmitype/StillImage" />
      </cc:Work>
    </rdf:RDF>
  </metadata>
  <sodipodi:namedview
     inkscape:window-height="1004"
     inkscape:window-width="1678"
     inkscape:pageshadow="2"
     inkscape:pageopacity="0"
     guidetolerance="10.0"
     gridtolerance="10.0"
     objecttolerance="10.0"
     borderopacity="1.0"
     bordercolor="#666666"
     pagecolor="#bfbfbf"
     id="base"
     showgrid="false"
     inkscape:zoom="2.5067977"
     inkscape:cx="202.44797"
     inkscape:cy="126.49234"
     inkscape:window-x="0"
     inkscape:window-y="15"
     inkscape:current-layer="layer2"
     inkscape:window-maximized="0"
     inkscape:showpageshadow="false" />
  <defs
     id="defs4">
    <inkscape:perspective
       sodipodi:type="inkscape:persp3d"
       inkscape:vp_x="0 : 232.48599 : 1"
       inkscape:vp_y="0 : 1000 : 0"
       inkscape:vp_z="361.81308 : 232.48599 : 1"
       inkscape:persp3d-origin="180.90654 : 154.99066 : 1"
       id="perspective78" />
  </defs>
  <g
     inkscape:groupmode="layer"
     id="layer1"
     inkscape:label="Template"
     sodipodi:insensitive="true"
     style="display:inline">
    <g
       id="g2492"
       transform="translate(-1.3577483,0.2691137)">
      <rect
         style="fill:#ffffff;fill-opacity:1;stroke:#000000;stroke-width:2;stroke-linejoin:round;stroke-miterlimit:4;stroke-opacity:1;stroke-dasharray:none"
         id="rect3447"
         y="234.73088"
         x="2.3577483"
         rx="12.3"
         height="228.97197"
         width="359.81308"
         ry="12.3" />
      <g
         style="opacity:0.88721804"
         id="g3449"
         transform="translate(-191.46865,-309.20693)">
        <rect
           style="fill:#a2813b;fill-opacity:1;stroke:#000000;stroke-width:1.75199997;stroke-linejoin:round;stroke-miterlimit:4;stroke-opacity:0.98518521;stroke-dasharray:none"
           id="rect3451"
           y="649.37665"
           x="461.6051"
           rx="18.650105"
           height="47.966698"
           width="58.314877"
           ry="18.650105" />
        <g
           id="g3453">
          <g
             id="g3455"
             transform="translate(0.1582313,0)">
            <path
               style="fill:none;stroke:#000000;stroke-width:0.96435052px;stroke-linecap:butt;stroke-linejoin:miter;stroke-opacity:1"
               id="path3457"
               d="m 465.76424,656.75161 c 6.33206,-0.12595 15.886,-0.55863 18.99454,-0.25521 4.91811,0.48004 3.53655,8.20266 -1.9255,7.70508 l 0.15465,18.55812 c 6.85427,-0.33827 5.42898,7.40913 -0.17247,7.4162 l -17.41944,0" />
            <path
               style="fill:none;stroke:#000000;stroke-width:1px;stroke-linecap:butt;stroke-linejoin:miter;stroke-opacity:1"
               id="path3459"
               d="m 482.4472,677.82872 -16.93074,0" />
            <path
               style="fill:none;stroke:#000000;stroke-width:1.00878596px;stroke-linecap:butt;stroke-linejoin:miter;stroke-opacity:1"
               id="path3461"
               d="m 482.35926,668.01838 -17.22956,0" />
            <path
               style="fill:none;stroke:#000000;stroke-width:1px;stroke-linecap:butt;stroke-linejoin:miter;stroke-opacity:1"
               id="path3463"
               d="m 479.75727,689.8543 0,7.43687" />
            <path
               style="fill:none;stroke:#000000;stroke-width:1px;stroke-linecap:butt;stroke-linejoin:miter;stroke-opacity:1"
               id="path3465"
               d="m 479.59904,690.17076 11.07619,0" />
            <path
               sodipodi:nodetypes="cscc"
               style="fill:none;stroke:#000000;stroke-width:0.98661214px;stroke-linecap:butt;stroke-linejoin:miter;stroke-opacity:1"
               id="path3467"
               d="m 484.67354,690.25657 c -16.53184,0 -19.62255,-8.50108 -19.62255,-17.0801 0,-8.90732 2.18532,-16.63655 18.3567,-16.63655 6.91609,-0.15823 5.527,-5.15627 5.527,-6.6765" />
          </g>
          <g
             id="g3469"
             transform="matrix(-1,0,0,1,981.39915,0.05754323)">
            <path
               style="fill:none;stroke:#000000;stroke-width:0.96435052px;stroke-linecap:butt;stroke-linejoin:miter;stroke-opacity:1"
               id="path3471"
               d="m 465.76424,656.75161 c 6.33206,-0.12595 15.886,-0.55863 18.99454,-0.25521 4.91811,0.48004 3.53655,8.20266 -1.9255,7.70508 l 0.15465,18.55812 c 6.85427,-0.33827 5.42898,7.40913 -0.17247,7.4162 l -17.41944,0" />
            <path
               style="fill:none;stroke:#000000;stroke-width:1px;stroke-linecap:butt;stroke-linejoin:miter;stroke-opacity:1"
               id="path3473"
               d="m 482.4472,677.82872 -16.93074,0" />
            <path
               style="fill:none;stroke:#000000;stroke-width:1.00878596px;stroke-linecap:butt;stroke-linejoin:miter;stroke-opacity:1"
               id="path3475"
               d="m 482.35926,668.01838 -17.22956,0" />
            <path
               style="fill:none;stroke:#000000;stroke-width:1px;stroke-linecap:butt;stroke-linejoin:miter;stroke-opacity:1"
               id="path3477"
               d="m 479.75727,689.8543 0,7.43687" />
            <path
               style="fill:none;stroke:#000000;stroke-width:1px;stroke-linecap:butt;stroke-linejoin:miter;stroke-opacity:1"
               id="path3479"
               d="m 479.59904,690.17076 11.07619,0" />
            <path
               sodipodi:nodetypes="cscc"
               style="fill:none;stroke:#000000;stroke-width:0.98661214px;stroke-linecap:butt;stroke-linejoin:miter;stroke-opacity:1"
               id="path3481"
               d="m 484.67354,690.25657 c -16.53184,0 -19.62255,-8.50108 -19.62255,-17.0801 0,-8.90732 2.18532,-16.63655 18.3567,-16.63655 6.91609,-0.15823 5.77184,-4.91143 5.77184,-6.43166" />
          </g>
        </g>
      </g>
      <path
         style="opacity:0;fill:#30a1c2;fill-opacity:1;stroke:#ffffff;stroke-width:5;stroke-linejoin:bevel;stroke-miterlimit:4;stroke-opacity:1;stroke-dasharray:none"
         id="path3497"
         d="m 215.72041,303.55598 c 3.47565,0.0107 6.70864,1.31353 9.8977,2.55582 4.63536,1.98722 9.03022,4.48829 13.27843,7.19513 1.97127,1.18198 3.40955,2.8002 4.60388,4.72565 0.9011,1.39022 1.47152,2.96435 2.30289,4.3847 0.71564,1.05698 1.53331,1.98308 2.0668,3.15455 0.41301,1.42554 0.60759,2.88924 1.0198,4.31754 0.615,1.39882 0.81563,2.92685 1.29222,4.36466 0.53442,1.31198 1.16306,2.58136 1.76713,3.86281 0.38808,0.85731 0.80139,1.69949 1.15009,2.57394 l -7.33267,4.08089 c -0.3176,-0.86535 -0.71981,-1.68779 -1.09259,-2.53003 -0.62943,-1.30246 -1.26903,-2.6035 -1.81927,-3.94067 -0.51789,-1.43968 -0.61661,-3.01326 -1.29408,-4.41123 -0.40953,-1.38907 -0.68108,-2.78415 -1.00731,-4.18992 -0.51036,-1.14033 -1.39125,-2.01796 -1.99071,-3.10955 -0.79021,-1.43215 -1.37547,-2.97849 -2.23463,-4.38139 -1.128,-1.77535 -2.39434,-3.38975 -4.14426,-4.6098 -4.00796,-2.8751 -8.24995,-5.45072 -12.86602,-7.23539 -3.40973,-1.1378 -6.85774,-2.2343 -10.50108,-1.79189 l 6.90368,-5.01582 z" />
      <path
         style="opacity:0;fill:#000000;fill-opacity:1;stroke:#ffffff;stroke-width:5;stroke-linejoin:bevel;stroke-miterlimit:4;stroke-opacity:1;stroke-dasharray:none"
         id="path3499"
         d="m 213.4178,300.10206 c 2.35237,0.21632 4.67768,0.69592 6.99545,1.14835 3.86769,0.75693 7.74117,1.47714 11.57255,2.40586 1.36892,0.50045 2.87559,0.78036 4.15741,1.50816 0.49163,0.27915 0.78238,0.6052 1.1818,0.98972 1.41012,1.71795 2.20004,3.83655 3.11371,5.83852 1.27303,2.86324 2.22716,5.86838 2.88231,8.93071 0.37648,1.97739 0.53839,3.99016 1.11966,5.92286 0.73909,1.86631 1.7429,3.6045 2.72427,5.34914 1.43791,2.47092 2.82982,4.96692 4.21448,7.46777 0.84174,1.41386 1.37237,2.97594 2.05312,4.46334 0.21083,0.49662 0.46064,0.9747 0.6926,1.46153 l -7.33916,4.15795 c -0.23421,-0.49804 -0.50333,-0.97977 -0.6896,-1.49894 -0.60732,-1.50435 -1.07707,-3.06867 -1.81958,-4.51922 -1.27795,-2.545 -2.61282,-5.06003 -4.17671,-7.44492 -1.08682,-1.75982 -2.20949,-3.50465 -2.94221,-5.45153 -0.60508,-1.97951 -0.77785,-4.02642 -1.00899,-6.07611 -0.54456,-3.02897 -1.39386,-6.00517 -2.73933,-8.78335 -0.91409,-1.89397 -1.84178,-3.80412 -3.21628,-5.41614 -1.35368,-1.23221 -3.13476,-1.7374 -4.83182,-2.33573 -3.76235,-1.01627 -7.57971,-1.79606 -11.42463,-2.42927 -2.45327,-0.3601 -4.93488,-0.77462 -7.42273,-0.67288 l 6.90368,-5.01582 z" />
      <path
         style="font-size:medium;font-style:normal;font-variant:normal;font-weight:normal;font-stretch:normal;text-indent:0;text-align:start;text-decoration:none;line-height:normal;letter-spacing:normal;word-spacing:normal;text-transform:none;direction:ltr;block-progression:tb;writing-mode:lr-tb;text-anchor:start;color:#000000;fill:#000000;fill-opacity:1;stroke:none;stroke-width:7;marker:none;visibility:visible;display:inline;overflow:visible;enable-background:accumulate;font-family:Bell Gothic;-inkscape-font-specification:Bell Gothic"
         d="m 320.8125,326.34375 c -9.42121,0.006 -23.21327,0.5 -44.21875,0.5 l 0,5.9375 -9.375,0 0,-5.9375 -25.8125,0 -1.46875,0 -1.03125,1.03125 -13.875,13.9375 -1,1.03125 0,1.40625 -0.4375,46.96875 0,0.0312 c 0,3.37643 0.84596,6.18783 2.5625,8.1875 1.71654,1.99967 4.21666,2.90625 6.4375,2.90625 l 33.71875,0 0,-5.96875 9.9375,0 0,5.96875 56.8125,0 c 1.8684,0 3.67552,-0.36771 5.21875,-1.34375 1.54323,-0.97604 2.60851,-2.4951 3.21875,-4.03125 1.22048,-3.07231 1.1875,-6.38635 1.1875,-10.40625 l -5.9375,0 0,-43.96875 5.9375,0 c 0,-4.02206 0.35537,-7.05048 -1.0625,-10.21875 -0.70894,-1.58414 -2.04474,-3.03655 -3.65625,-3.90625 -1.61151,-0.8697 -3.39118,-1.30543 -5.53125,-1.59375 -2.14007,-0.28832 -4.70875,-0.44135 -7.84375,-0.5 -1.17563,-0.022 -2.43536,-0.032 -3.78125,-0.0312 z m -1.15625,7.0625 c 5.49848,-0.0319 9.32988,0.0675 11.84375,0.40625 1.67591,0.22579 2.69412,0.5631 3.15625,0.8125 0.46213,0.2494 0.44582,0.26319 0.59375,0.59375 0.29586,0.66111 0.4375,3.24178 0.4375,7.375 l 0.0625,0 0,43.96875 -0.0625,0 c 0,3.88305 -0.25608,6.72648 -0.6875,7.8125 -0.21571,0.54301 -0.32741,0.59811 -0.46875,0.6875 -0.14134,0.0894 -0.49687,0.28125 -1.46875,0.28125 l -56.8125,0 0,0.0312 -9.9375,0 0,-0.0312 -33.71875,0 c -0.49756,0 -0.77814,-0.0647 -1.125,-0.46875 -0.34472,-0.40158 -0.86851,-1.39922 -0.875,-3.59375 l 0,-0.0312 0.4375,-45.53125 11.8125,-11.875 24.375,0 0,-0.0625 9.375,0 0,0.0625 c 20.0971,0 33.89837,-0.38426 43.0625,-0.4375 z"
         transform="translate(1.3577483,-0.2691137)"
         id="path3507" />
    </g>
  </g>
  <g
     inkscape:groupmode="layer"
     id="layer2"
     inkscape:label="Art" />
</svg>
